<svg width="56" height="27" viewBox="0 0 56 27" fill="none" xmlns="http://www.w3.org/2000/svg">
<path d="M10.2784 27H0.0511364L4.39773 0.818181H14.2159C16.9091 0.818181 19.1591 1.35937 20.9659 2.44176C22.7727 3.52415 24.0554 5.07102 24.8139 7.08239C25.5724 9.09375 25.7216 11.4886 25.2614 14.267C24.8182 16.9432 23.919 19.2315 22.5639 21.1321C21.2173 23.0327 19.4957 24.4858 17.3991 25.4915C15.3111 26.4972 12.9375 27 10.2784 27ZM8.15625 20.9659H10.7386C12.0341 20.9659 13.1889 20.7401 14.2031 20.2884C15.2259 19.8281 16.0781 19.0611 16.7599 17.9872C17.4503 16.9048 17.9489 15.4261 18.2557 13.5511C18.5455 11.7784 18.5369 10.4105 18.2301 9.44744C17.9233 8.47585 17.3395 7.80256 16.4787 7.42756C15.6179 7.04403 14.5057 6.85227 13.142 6.85227H10.5085L8.15625 20.9659ZM36.3068 0.818181L38.608 19.2784H38.8125L47.25 0.818181H55.2784L42.2898 27H32.5739L28.2784 0.818181H36.3068Z" fill="#E67F45"/>
</svg>
