<svg width="158" height="28" viewBox="0 0 158 28" fill="none" xmlns="http://www.w3.org/2000/svg">
<path d="M10.2784 27H0.0511364L4.39773 0.818181H14.2159C16.9091 0.818181 19.1591 1.35937 20.9659 2.44176C22.7727 3.52415 24.0554 5.07102 24.8139 7.08239C25.5724 9.09375 25.7216 11.4886 25.2614 14.267C24.8182 16.9432 23.919 19.2315 22.5639 21.1321C21.2173 23.0327 19.4957 24.4858 17.3991 25.4915C15.3111 26.4972 12.9375 27 10.2784 27ZM8.15625 20.9659H10.7386C12.0341 20.9659 13.1889 20.7401 14.2031 20.2884C15.2259 19.8281 16.0781 19.0611 16.7599 17.9872C17.4503 16.9048 17.9489 15.4261 18.2557 13.5511C18.5455 11.7784 18.5369 10.4105 18.2301 9.44744C17.9233 8.47585 17.3395 7.80256 16.4787 7.42756C15.6179 7.04403 14.5057 6.85227 13.142 6.85227H10.5085L8.15625 20.9659ZM36.3068 0.818181L38.608 19.2784H38.8125L47.25 0.818181H55.2784L42.2898 27H32.5739L28.2784 0.818181H36.3068Z" fill="#E67F45"/>
<path d="M87.3825 0.818181L83.0359 27H78.8171L69.4464 9.16619H69.2418L66.2631 27H61.5202L65.8668 0.818181H70.1112L79.4691 18.6648H79.712L82.6651 0.818181H87.3825ZM96.6413 27.3835C94.6726 27.3835 93.0447 26.9744 91.7578 26.1562C90.4709 25.3295 89.5675 24.1619 89.0476 22.6534C88.5362 21.1364 88.451 19.3509 88.7919 17.2969C89.1243 15.277 89.8018 13.5043 90.8246 11.9787C91.8473 10.4446 93.1257 9.25142 94.6598 8.39915C96.2024 7.53835 97.907 7.10795 99.7734 7.10795C100.984 7.10795 102.096 7.30398 103.11 7.69602C104.124 8.07954 104.981 8.67614 105.68 9.4858C106.379 10.2955 106.86 11.3267 107.124 12.5795C107.388 13.8239 107.376 15.3068 107.086 17.0284L106.869 18.4474H90.7607L91.2592 15.3281H102.918C103.072 14.4418 103.021 13.6534 102.765 12.9631C102.509 12.2642 102.083 11.7145 101.487 11.3139C100.89 10.9134 100.144 10.7131 99.2493 10.7131C98.3374 10.7131 97.4851 10.9474 96.6925 11.4162C95.9084 11.8764 95.2479 12.473 94.7109 13.206C94.174 13.9389 93.8331 14.7102 93.6882 15.5199L93.1641 18.5114C92.9766 19.7386 93.0192 20.7401 93.2919 21.5156C93.5646 22.2912 94.0419 22.8622 94.7237 23.2287C95.4055 23.5952 96.2663 23.7784 97.3061 23.7784C97.9879 23.7784 98.6186 23.6847 99.1982 23.4972C99.7777 23.3097 100.293 23.0284 100.745 22.6534C101.205 22.2699 101.589 21.8011 101.896 21.2472L106.127 21.733C105.658 22.875 104.972 23.8722 104.069 24.7244C103.165 25.5682 102.083 26.2244 100.822 26.6932C99.5689 27.1534 98.1754 27.3835 96.6413 27.3835ZM113.321 27L111.046 7.36364H115.763L116.914 21.1705H117.093L122.922 7.36364H127.588L128.816 21.0938H129.007L134.709 7.36364H139.439L130.605 27H125.786L124.303 13.7301H124.034L118.154 27H113.321ZM157.308 12.554L153.051 13.0142C153.009 12.5795 152.876 12.1747 152.655 11.7997C152.433 11.4247 152.101 11.1264 151.658 10.9048C151.223 10.6747 150.661 10.5597 149.97 10.5597C148.964 10.5597 148.082 10.7855 147.324 11.2372C146.565 11.6889 146.135 12.2685 146.033 12.9759C145.939 13.5043 146.067 13.9347 146.416 14.267C146.766 14.5994 147.413 14.8807 148.359 15.1108L151.607 15.8267C153.396 16.2273 154.683 16.875 155.467 17.7699C156.26 18.6648 156.537 19.8366 156.298 21.2855C156.094 22.4957 155.565 23.5611 154.713 24.4815C153.861 25.3935 152.77 26.1051 151.44 26.6165C150.119 27.1278 148.653 27.3835 147.043 27.3835C144.597 27.3835 142.713 26.8764 141.392 25.8622C140.08 24.8395 139.428 23.4332 139.436 21.6435L143.987 21.2088C144.038 22.0952 144.349 22.7642 144.92 23.2159C145.491 23.6591 146.284 23.8849 147.298 23.8935C148.44 23.902 149.403 23.6634 150.188 23.1776C150.98 22.6832 151.428 22.0824 151.53 21.375C151.615 20.8466 151.483 20.4162 151.134 20.0838C150.793 19.7514 150.183 19.4872 149.305 19.2912L146.084 18.5881C144.26 18.1875 142.96 17.5099 142.185 16.5554C141.418 15.5923 141.158 14.3778 141.405 12.9119C141.609 11.7187 142.108 10.6918 142.901 9.83097C143.702 8.96165 144.729 8.29261 145.982 7.82386C147.234 7.34659 148.636 7.10795 150.188 7.10795C152.523 7.10795 154.283 7.59801 155.467 8.57812C156.652 9.55824 157.266 10.8835 157.308 12.554Z" fill="black"/>
</svg>
